<svg xmlns="http://www.w3.org/2000/svg" viewBox="0 0 1390 954" width="1390" height="954" font-family="ui-monospace,monospace" font-size="11">
<rect width="1390" height="954" fill="#0f172a"/>
<defs>
  <marker id="arr" markerWidth="8" markerHeight="6" refX="8" refY="3" orient="auto">
    <path d="M0,0 L8,3 L0,6 Z" fill="#64748b"/>
  </marker>
</defs>
<text x="112.0" y="22" text-anchor="middle" fill="#94a3b8" font-weight="bold" font-size="13">00 — Presentación</text>
<text x="342.0" y="22" text-anchor="middle" fill="#60a5fa" font-weight="bold" font-size="13">01 — Fundamentos</text>
<line x1="235.0" y1="30" x2="235.0" y2="944" stroke="#1e293b" stroke-width="1"/>
<text x="572.0" y="22" text-anchor="middle" fill="#34d399" font-weight="bold" font-size="13">02 — Teoría info.</text>
<line x1="465.0" y1="30" x2="465.0" y2="944" stroke="#1e293b" stroke-width="1"/>
<text x="802.0" y="22" text-anchor="middle" fill="#f59e0b" font-weight="bold" font-size="13">03 — Computabilidad</text>
<line x1="695.0" y1="30" x2="695.0" y2="944" stroke="#1e293b" stroke-width="1"/>
<text x="1032.0" y="22" text-anchor="middle" fill="#f87171" font-weight="bold" font-size="13">04 — Complejidad</text>
<line x1="925.0" y1="30" x2="925.0" y2="944" stroke="#1e293b" stroke-width="1"/>
<text x="1262.0" y="22" text-anchor="middle" fill="#a78bfa" font-weight="bold" font-size="13">05 — Conexiones</text>
<line x1="1155.0" y1="30" x2="1155.0" y2="944" stroke="#1e293b" stroke-width="1"/>
<path d="M342.0,120.0 C342.0,120.0 342.0,170.0 342.0,170.0" fill="none" stroke="#64748b" stroke-width="1.2" marker-end="url(#arr)"/>
<path d="M342.0,166.0 C342.0,166.0 342.0,170.0 342.0,170.0" fill="none" stroke="#64748b" stroke-width="1.2" marker-end="url(#arr)"/>
<path d="M342.0,212.0 C342.0,212.0 342.0,216.0 342.0,216.0" fill="none" stroke="#64748b" stroke-width="1.2" marker-end="url(#arr)"/>
<path d="M342.0,258.0 C342.0,258.0 342.0,216.0 342.0,216.0" fill="none" stroke="#64748b" stroke-width="1.2" marker-end="url(#arr)"/>
<path d="M572.0,74.0 C457.0,74.0 457.0,74.0 438.0,74.0" fill="none" stroke="#64748b" stroke-width="1.2" marker-end="url(#arr)"/>
<path d="M572.0,120.0 C572.0,120.0 572.0,170.0 572.0,170.0" fill="none" stroke="#64748b" stroke-width="1.2" marker-end="url(#arr)"/>
<path d="M572.0,166.0 C572.0,166.0 572.0,170.0 572.0,170.0" fill="none" stroke="#64748b" stroke-width="1.2" marker-end="url(#arr)"/>
<path d="M572.0,166.0 C572.0,166.0 572.0,216.0 572.0,216.0" fill="none" stroke="#64748b" stroke-width="1.2" marker-end="url(#arr)"/>
<path d="M572.0,212.0 C572.0,212.0 572.0,216.0 572.0,216.0" fill="none" stroke="#64748b" stroke-width="1.2" marker-end="url(#arr)"/>
<path d="M572.0,258.0 C572.0,258.0 572.0,170.0 572.0,170.0" fill="none" stroke="#64748b" stroke-width="1.2" marker-end="url(#arr)"/>
<path d="M572.0,258.0 C572.0,258.0 572.0,216.0 572.0,216.0" fill="none" stroke="#64748b" stroke-width="1.2" marker-end="url(#arr)"/>
<path d="M572.0,304.0 C572.0,304.0 572.0,308.0 572.0,308.0" fill="none" stroke="#64748b" stroke-width="1.2" marker-end="url(#arr)"/>
<path d="M572.0,350.0 C572.0,350.0 572.0,170.0 572.0,170.0" fill="none" stroke="#64748b" stroke-width="1.2" marker-end="url(#arr)"/>
<path d="M572.0,350.0 C572.0,350.0 572.0,216.0 572.0,216.0" fill="none" stroke="#64748b" stroke-width="1.2" marker-end="url(#arr)"/>
<path d="M572.0,396.0 C572.0,396.0 572.0,308.0 572.0,308.0" fill="none" stroke="#64748b" stroke-width="1.2" marker-end="url(#arr)"/>
<path d="M572.0,396.0 C572.0,396.0 572.0,446.0 572.0,446.0" fill="none" stroke="#64748b" stroke-width="1.2" marker-end="url(#arr)"/>
<path d="M572.0,442.0 C572.0,442.0 572.0,446.0 572.0,446.0" fill="none" stroke="#64748b" stroke-width="1.2" marker-end="url(#arr)"/>
<path d="M572.0,442.0 C572.0,442.0 572.0,492.0 572.0,492.0" fill="none" stroke="#64748b" stroke-width="1.2" marker-end="url(#arr)"/>
<path d="M572.0,488.0 C572.0,488.0 572.0,170.0 572.0,170.0" fill="none" stroke="#64748b" stroke-width="1.2" marker-end="url(#arr)"/>
<path d="M572.0,488.0 C572.0,488.0 572.0,446.0 572.0,446.0" fill="none" stroke="#64748b" stroke-width="1.2" marker-end="url(#arr)"/>
<path d="M572.0,534.0 C572.0,534.0 572.0,400.0 572.0,400.0" fill="none" stroke="#64748b" stroke-width="1.2" marker-end="url(#arr)"/>
<path d="M572.0,534.0 C572.0,534.0 572.0,308.0 572.0,308.0" fill="none" stroke="#64748b" stroke-width="1.2" marker-end="url(#arr)"/>
<path d="M572.0,580.0 C572.0,580.0 572.0,170.0 572.0,170.0" fill="none" stroke="#64748b" stroke-width="1.2" marker-end="url(#arr)"/>
<path d="M572.0,580.0 C572.0,580.0 572.0,446.0 572.0,446.0" fill="none" stroke="#64748b" stroke-width="1.2" marker-end="url(#arr)"/>
<path d="M572.0,626.0 C572.0,626.0 572.0,262.0 572.0,262.0" fill="none" stroke="#64748b" stroke-width="1.2" marker-end="url(#arr)"/>
<path d="M572.0,672.0 C572.0,672.0 572.0,676.0 572.0,676.0" fill="none" stroke="#64748b" stroke-width="1.2" marker-end="url(#arr)"/>
<path d="M572.0,718.0 C572.0,718.0 572.0,400.0 572.0,400.0" fill="none" stroke="#64748b" stroke-width="1.2" marker-end="url(#arr)"/>
<path d="M572.0,718.0 C457.0,718.0 457.0,254.6 378.9,254.6" fill="none" stroke="#64748b" stroke-width="1.2" marker-end="url(#arr)"/>
<path d="M572.0,718.0 C457.0,718.0 457.0,299.4 381.7,299.4" fill="none" stroke="#64748b" stroke-width="1.2" marker-end="url(#arr)"/>
<path d="M572.0,764.0 C572.0,764.0 572.0,308.0 572.0,308.0" fill="none" stroke="#64748b" stroke-width="1.2" marker-end="url(#arr)"/>
<path d="M572.0,764.0 C572.0,764.0 572.0,446.0 572.0,446.0" fill="none" stroke="#64748b" stroke-width="1.2" marker-end="url(#arr)"/>
<path d="M572.0,764.0 C572.0,764.0 572.0,492.0 572.0,492.0" fill="none" stroke="#64748b" stroke-width="1.2" marker-end="url(#arr)"/>
<path d="M572.0,810.0 C572.0,810.0 572.0,492.0 572.0,492.0" fill="none" stroke="#64748b" stroke-width="1.2" marker-end="url(#arr)"/>
<path d="M572.0,810.0 C572.0,810.0 572.0,400.0 572.0,400.0" fill="none" stroke="#64748b" stroke-width="1.2" marker-end="url(#arr)"/>
<path d="M572.0,856.0 C572.0,856.0 572.0,492.0 572.0,492.0" fill="none" stroke="#64748b" stroke-width="1.2" marker-end="url(#arr)"/>
<path d="M572.0,856.0 C572.0,856.0 572.0,446.0 572.0,446.0" fill="none" stroke="#64748b" stroke-width="1.2" marker-end="url(#arr)"/>
<path d="M572.0,902.0 C572.0,902.0 572.0,400.0 572.0,400.0" fill="none" stroke="#64748b" stroke-width="1.2" marker-end="url(#arr)"/>
<path d="M572.0,902.0 C572.0,902.0 572.0,308.0 572.0,308.0" fill="none" stroke="#64748b" stroke-width="1.2" marker-end="url(#arr)"/>
<path d="M572.0,902.0 C572.0,902.0 572.0,446.0 572.0,446.0" fill="none" stroke="#64748b" stroke-width="1.2" marker-end="url(#arr)"/>
<path d="M802.0,74.0 C572.0,74.0 572.0,110.4 437.5,110.4" fill="none" stroke="#64748b" stroke-width="1.2" marker-end="url(#arr)"/>
<path d="M802.0,120.0 C802.0,120.0 802.0,170.0 802.0,170.0" fill="none" stroke="#64748b" stroke-width="1.2" marker-end="url(#arr)"/>
<path d="M802.0,166.0 C802.0,166.0 802.0,170.0 802.0,170.0" fill="none" stroke="#64748b" stroke-width="1.2" marker-end="url(#arr)"/>
<path d="M802.0,166.0 C802.0,166.0 802.0,216.0 802.0,216.0" fill="none" stroke="#64748b" stroke-width="1.2" marker-end="url(#arr)"/>
<path d="M802.0,212.0 C802.0,212.0 802.0,170.0 802.0,170.0" fill="none" stroke="#64748b" stroke-width="1.2" marker-end="url(#arr)"/>
<path d="M802.0,258.0 C572.0,258.0 572.0,147.6 434.0,147.6" fill="none" stroke="#64748b" stroke-width="1.2" marker-end="url(#arr)"/>
<path d="M802.0,304.0 C802.0,304.0 802.0,354.0 802.0,354.0" fill="none" stroke="#64748b" stroke-width="1.2" marker-end="url(#arr)"/>
<path d="M802.0,350.0 C802.0,350.0 802.0,308.0 802.0,308.0" fill="none" stroke="#64748b" stroke-width="1.2" marker-end="url(#arr)"/>
<path d="M802.0,350.0 C802.0,350.0 802.0,170.0 802.0,170.0" fill="none" stroke="#64748b" stroke-width="1.2" marker-end="url(#arr)"/>
<path d="M802.0,396.0 C802.0,396.0 802.0,308.0 802.0,308.0" fill="none" stroke="#64748b" stroke-width="1.2" marker-end="url(#arr)"/>
<path d="M802.0,396.0 C917.0,396.0 917.0,152.1 976.2,152.1" fill="none" stroke="#64748b" stroke-width="1.2" marker-end="url(#arr)"/>
<path d="M802.0,442.0 C802.0,442.0 802.0,400.0 802.0,400.0" fill="none" stroke="#64748b" stroke-width="1.2" marker-end="url(#arr)"/>
<path d="M802.0,442.0 C802.0,442.0 802.0,354.0 802.0,354.0" fill="none" stroke="#64748b" stroke-width="1.2" marker-end="url(#arr)"/>
<path d="M802.0,488.0 C802.0,488.0 802.0,170.0 802.0,170.0" fill="none" stroke="#64748b" stroke-width="1.2" marker-end="url(#arr)"/>
<path d="M802.0,488.0 C802.0,488.0 802.0,216.0 802.0,216.0" fill="none" stroke="#64748b" stroke-width="1.2" marker-end="url(#arr)"/>
<path d="M802.0,534.0 C802.0,534.0 802.0,308.0 802.0,308.0" fill="none" stroke="#64748b" stroke-width="1.2" marker-end="url(#arr)"/>
<path d="M802.0,534.0 C917.0,534.0 917.0,159.9 989.1,159.9" fill="none" stroke="#64748b" stroke-width="1.2" marker-end="url(#arr)"/>
<path d="M802.0,580.0 C1032.0,580.0 1032.0,145.0 1197.4,145.0" fill="none" stroke="#64748b" stroke-width="1.2" marker-end="url(#arr)"/>
<path d="M802.0,580.0 C802.0,580.0 802.0,308.0 802.0,308.0" fill="none" stroke="#64748b" stroke-width="1.2" marker-end="url(#arr)"/>
<path d="M1032.0,74.0 C917.0,74.0 917.0,162.6 884.3,162.6" fill="none" stroke="#64748b" stroke-width="1.2" marker-end="url(#arr)"/>
<path d="M1032.0,74.0 C1032.0,74.0 1032.0,162.0 1032.0,162.0" fill="none" stroke="#64748b" stroke-width="1.2" marker-end="url(#arr)"/>
<path d="M1032.0,120.0 C1032.0,120.0 1032.0,170.0 1032.0,170.0" fill="none" stroke="#64748b" stroke-width="1.2" marker-end="url(#arr)"/>
<path d="M1032.0,166.0 C1032.0,166.0 1032.0,170.0 1032.0,170.0" fill="none" stroke="#64748b" stroke-width="1.2" marker-end="url(#arr)"/>
<path d="M1032.0,166.0 C687.0,166.0 687.0,245.3 437.2,245.3" fill="none" stroke="#64748b" stroke-width="1.2" marker-end="url(#arr)"/>
<path d="M1032.0,212.0 C1032.0,212.0 1032.0,170.0 1032.0,170.0" fill="none" stroke="#64748b" stroke-width="1.2" marker-end="url(#arr)"/>
<path d="M1032.0,258.0 C687.0,258.0 687.0,98.7 434.8,98.7" fill="none" stroke="#64748b" stroke-width="1.2" marker-end="url(#arr)"/>
<path d="M1032.0,304.0 C1032.0,304.0 1032.0,170.0 1032.0,170.0" fill="none" stroke="#64748b" stroke-width="1.2" marker-end="url(#arr)"/>
<path d="M1032.0,350.0 C687.0,350.0 687.0,270.7 437.2,270.7" fill="none" stroke="#64748b" stroke-width="1.2" marker-end="url(#arr)"/>
<path d="M1032.0,350.0 C1032.0,350.0 1032.0,170.0 1032.0,170.0" fill="none" stroke="#64748b" stroke-width="1.2" marker-end="url(#arr)"/>
<path d="M1032.0,396.0 C1032.0,396.0 1032.0,170.0 1032.0,170.0" fill="none" stroke="#64748b" stroke-width="1.2" marker-end="url(#arr)"/>
<path d="M1032.0,396.0 C687.0,396.0 687.0,114.6 429.0,114.6" fill="none" stroke="#64748b" stroke-width="1.2" marker-end="url(#arr)"/>
<path d="M1032.0,442.0 C1032.0,442.0 1032.0,216.0 1032.0,216.0" fill="none" stroke="#64748b" stroke-width="1.2" marker-end="url(#arr)"/>
<path d="M1032.0,442.0 C1032.0,442.0 1032.0,400.0 1032.0,400.0" fill="none" stroke="#64748b" stroke-width="1.2" marker-end="url(#arr)"/>
<path d="M1032.0,488.0 C1032.0,488.0 1032.0,170.0 1032.0,170.0" fill="none" stroke="#64748b" stroke-width="1.2" marker-end="url(#arr)"/>
<path d="M1032.0,534.0 C1032.0,534.0 1032.0,170.0 1032.0,170.0" fill="none" stroke="#64748b" stroke-width="1.2" marker-end="url(#arr)"/>
<path d="M1032.0,580.0 C1032.0,580.0 1032.0,170.0 1032.0,170.0" fill="none" stroke="#64748b" stroke-width="1.2" marker-end="url(#arr)"/>
<path d="M1032.0,580.0 C802.0,580.0 802.0,187.9 639.9,187.9" fill="none" stroke="#64748b" stroke-width="1.2" marker-end="url(#arr)"/>
<path d="M1032.0,626.0 C1032.0,626.0 1032.0,170.0 1032.0,170.0" fill="none" stroke="#64748b" stroke-width="1.2" marker-end="url(#arr)"/>
<path d="M1032.0,626.0 C1032.0,626.0 1032.0,262.0 1032.0,262.0" fill="none" stroke="#64748b" stroke-width="1.2" marker-end="url(#arr)"/>
<path d="M1032.0,672.0 C1032.0,672.0 1032.0,170.0 1032.0,170.0" fill="none" stroke="#64748b" stroke-width="1.2" marker-end="url(#arr)"/>
<path d="M1032.0,672.0 C1032.0,672.0 1032.0,492.0 1032.0,492.0" fill="none" stroke="#64748b" stroke-width="1.2" marker-end="url(#arr)"/>
<path d="M1032.0,672.0 C1032.0,672.0 1032.0,722.0 1032.0,722.0" fill="none" stroke="#64748b" stroke-width="1.2" marker-end="url(#arr)"/>
<path d="M1262.0,74.0 C917.0,74.0 917.0,74.0 668.0,74.0" fill="none" stroke="#64748b" stroke-width="1.2" marker-end="url(#arr)"/>
<path d="M1262.0,74.0 C1032.0,74.0 1032.0,184.4 894.0,184.4" fill="none" stroke="#64748b" stroke-width="1.2" marker-end="url(#arr)"/>
<path d="M1262.0,120.0 C1147.0,120.0 1147.0,92.8 1126.1,92.8" fill="none" stroke="#64748b" stroke-width="1.2" marker-end="url(#arr)"/>
<path d="M1262.0,120.0 C1262.0,120.0 1262.0,170.0 1262.0,170.0" fill="none" stroke="#64748b" stroke-width="1.2" marker-end="url(#arr)"/>
<path d="M1262.0,166.0 C917.0,166.0 917.0,86.7 667.2,86.7" fill="none" stroke="#64748b" stroke-width="1.2" marker-end="url(#arr)"/>
<path d="M1262.0,166.0 C917.0,166.0 917.0,126.4 667.8,126.4" fill="none" stroke="#64748b" stroke-width="1.2" marker-end="url(#arr)"/>
<path d="M1262.0,212.0 C917.0,212.0 917.0,92.8 666.1,92.8" fill="none" stroke="#64748b" stroke-width="1.2" marker-end="url(#arr)"/>
<path d="M1262.0,212.0 C802.0,212.0 802.0,129.6 437.5,129.6" fill="none" stroke="#64748b" stroke-width="1.2" marker-end="url(#arr)"/>
<path d="M1262.0,258.0 C1262.0,258.0 1262.0,262.0 1262.0,262.0" fill="none" stroke="#64748b" stroke-width="1.2" marker-end="url(#arr)"/>
<path d="M1262.0,258.0 C917.0,258.0 917.0,258.0 668.0,258.0" fill="none" stroke="#64748b" stroke-width="1.2" marker-end="url(#arr)"/>
<path d="M1262.0,304.0 C917.0,304.0 917.0,104.4 663.1,104.4" fill="none" stroke="#64748b" stroke-width="1.2" marker-end="url(#arr)"/>
<path d="M1262.0,350.0 C917.0,350.0 917.0,109.7 661.1,109.7" fill="none" stroke="#64748b" stroke-width="1.2" marker-end="url(#arr)"/>
<path d="M1262.0,350.0 C917.0,350.0 917.0,310.4 667.8,310.4" fill="none" stroke="#64748b" stroke-width="1.2" marker-end="url(#arr)"/>
<path d="M1262.0,442.0 C802.0,442.0 802.0,109.7 431.1,109.7" fill="none" stroke="#64748b" stroke-width="1.2" marker-end="url(#arr)"/>
<path d="M1262.0,442.0 C917.0,442.0 917.0,282.7 664.8,282.7" fill="none" stroke="#64748b" stroke-width="1.2" marker-end="url(#arr)"/>
<path d="M1262.0,442.0 C1262.0,442.0 1262.0,262.0 1262.0,262.0" fill="none" stroke="#64748b" stroke-width="1.2" marker-end="url(#arr)"/>
<path d="M1262.0,488.0 C917.0,488.0 917.0,288.4 663.1,288.4" fill="none" stroke="#64748b" stroke-width="1.2" marker-end="url(#arr)"/>
<path d="M1262.0,488.0 C1262.0,488.0 1262.0,262.0 1262.0,262.0" fill="none" stroke="#64748b" stroke-width="1.2" marker-end="url(#arr)"/>
<path d="M1262.0,488.0 C1262.0,488.0 1262.0,354.0 1262.0,354.0" fill="none" stroke="#64748b" stroke-width="1.2" marker-end="url(#arr)"/>
<path d="M1262.0,534.0 C917.0,534.0 917.0,293.7 661.1,293.7" fill="none" stroke="#64748b" stroke-width="1.2" marker-end="url(#arr)"/>
<path d="M1262.0,534.0 C1262.0,534.0 1262.0,216.0 1262.0,216.0" fill="none" stroke="#64748b" stroke-width="1.2" marker-end="url(#arr)"/>
<path d="M1262.0,534.0 C917.0,534.0 917.0,127.3 651.9,127.3" fill="none" stroke="#64748b" stroke-width="1.2" marker-end="url(#arr)"/>
<path d="M1262.0,580.0 C917.0,580.0 917.0,173.3 651.9,173.3" fill="none" stroke="#64748b" stroke-width="1.2" marker-end="url(#arr)"/>
<path d="M1262.0,580.0 C917.0,580.0 917.0,298.6 659.0,298.6" fill="none" stroke="#64748b" stroke-width="1.2" marker-end="url(#arr)"/>
<path d="M1262.0,580.0 C1262.0,580.0 1262.0,170.0 1262.0,170.0" fill="none" stroke="#64748b" stroke-width="1.2" marker-end="url(#arr)"/>
<path d="M1262.0,626.0 C1262.0,626.0 1262.0,170.0 1262.0,170.0" fill="none" stroke="#64748b" stroke-width="1.2" marker-end="url(#arr)"/>
<path d="M1262.0,626.0 C917.0,626.0 917.0,219.3 651.9,219.3" fill="none" stroke="#64748b" stroke-width="1.2" marker-end="url(#arr)"/>
<path d="M1262.0,626.0 C917.0,626.0 917.0,303.2 656.7,303.2" fill="none" stroke="#64748b" stroke-width="1.2" marker-end="url(#arr)"/>
<path d="M1262.0,672.0 C917.0,672.0 917.0,472.4 663.1,472.4" fill="none" stroke="#64748b" stroke-width="1.2" marker-end="url(#arr)"/>
<path d="M1262.0,672.0 C917.0,672.0 917.0,180.0 647.0,180.0" fill="none" stroke="#64748b" stroke-width="1.2" marker-end="url(#arr)"/>
<path d="M1262.0,672.0 C1262.0,672.0 1262.0,262.0 1262.0,262.0" fill="none" stroke="#64748b" stroke-width="1.2" marker-end="url(#arr)"/>
<rect x="20" y="60" width="184" height="28" rx="4" ry="4" fill="#94a3b822" stroke="#94a3b8" stroke-width="1.2"/>
<text x="26" y="71" fill="#94a3b8" font-size="9" opacity="0.7">00/01</text>
<text x="26" y="81" fill="#e2e8f0" font-size="10">mapa del territorio</text>
<rect x="20" y="106" width="184" height="28" rx="4" ry="4" fill="#94a3b822" stroke="#94a3b8" stroke-width="1.2"/>
<text x="26" y="117" fill="#94a3b8" font-size="9" opacity="0.7">00/02</text>
<text x="26" y="127" fill="#e2e8f0" font-size="10">rutas de profundizacion</text>
<rect x="250" y="60" width="184" height="28" rx="4" ry="4" fill="#60a5fa22" stroke="#60a5fa" stroke-width="1.2"/>
<text x="256" y="71" fill="#60a5fa" font-size="9" opacity="0.7">01/01</text>
<text x="256" y="81" fill="#e2e8f0" font-size="10">logaritmos probabilidad y cr…</text>
<rect x="250" y="106" width="184" height="28" rx="4" ry="4" fill="#60a5fa22" stroke="#60a5fa" stroke-width="1.2"/>
<text x="256" y="117" fill="#60a5fa" font-size="9" opacity="0.7">01/02</text>
<text x="256" y="127" fill="#e2e8f0" font-size="10">conjuntos funciones y relaci…</text>
<rect x="250" y="152" width="184" height="28" rx="4" ry="4" fill="#60a5fa22" stroke="#60a5fa" stroke-width="1.2"/>
<text x="256" y="163" fill="#60a5fa" font-size="9" opacity="0.7">01/03</text>
<text x="256" y="173" fill="#e2e8f0" font-size="10">combinatoria y conteo</text>
<rect x="250" y="198" width="184" height="28" rx="4" ry="4" fill="#60a5fa22" stroke="#60a5fa" stroke-width="1.2"/>
<text x="256" y="209" fill="#60a5fa" font-size="9" opacity="0.7">01/04</text>
<text x="256" y="219" fill="#e2e8f0" font-size="10">grafos y estructuras discret…</text>
<rect x="250" y="244" width="184" height="28" rx="4" ry="4" fill="#60a5fa22" stroke="#60a5fa" stroke-width="1.2"/>
<text x="256" y="255" fill="#60a5fa" font-size="9" opacity="0.7">01/05</text>
<text x="256" y="265" fill="#e2e8f0" font-size="10">logica booleana y proposicio…</text>
<rect x="480" y="60" width="184" height="28" rx="4" ry="4" fill="#34d39922" stroke="#34d399" stroke-width="1.2"/>
<text x="486" y="71" fill="#34d399" font-size="9" opacity="0.7">02/01</text>
<text x="486" y="81" fill="#e2e8f0" font-size="10">entropia incertidumbre</text>
<rect x="480" y="106" width="184" height="28" rx="4" ry="4" fill="#34d39922" stroke="#34d399" stroke-width="1.2"/>
<text x="486" y="117" fill="#34d399" font-size="9" opacity="0.7">02/02</text>
<text x="486" y="127" fill="#e2e8f0" font-size="10">informacion mutua</text>
<rect x="480" y="152" width="184" height="28" rx="4" ry="4" fill="#34d39922" stroke="#34d399" stroke-width="1.2"/>
<text x="486" y="163" fill="#34d399" font-size="9" opacity="0.7">02/03</text>
<text x="486" y="173" fill="#e2e8f0" font-size="10">codificacion de fuente</text>
<rect x="480" y="198" width="184" height="28" rx="4" ry="4" fill="#34d39922" stroke="#34d399" stroke-width="1.2"/>
<text x="486" y="209" fill="#34d399" font-size="9" opacity="0.7">02/04</text>
<text x="486" y="219" fill="#e2e8f0" font-size="10">canales discretos y capacida…</text>
<rect x="480" y="244" width="184" height="28" rx="4" ry="4" fill="#34d39922" stroke="#34d399" stroke-width="1.2"/>
<text x="486" y="255" fill="#34d399" font-size="9" opacity="0.7">02/05</text>
<text x="486" y="265" fill="#e2e8f0" font-size="10">divergencia kl y entropia cr…</text>
<rect x="480" y="290" width="184" height="28" rx="4" ry="4" fill="#34d39922" stroke="#34d399" stroke-width="1.2"/>
<text x="486" y="301" fill="#34d399" font-size="9" opacity="0.7">02/06</text>
<text x="486" y="311" fill="#e2e8f0" font-size="10">codigos correctores de error…</text>
<rect x="480" y="336" width="184" height="28" rx="4" ry="4" fill="#34d39922" stroke="#34d399" stroke-width="1.2"/>
<text x="486" y="347" fill="#34d399" font-size="9" opacity="0.7">02/07</text>
<text x="486" y="357" fill="#e2e8f0" font-size="10">entropia conjunta y condicio…</text>
<rect x="480" y="382" width="184" height="28" rx="4" ry="4" fill="#34d39922" stroke="#34d399" stroke-width="1.2"/>
<text x="486" y="393" fill="#34d399" font-size="9" opacity="0.7">02/08</text>
<text x="486" y="403" fill="#e2e8f0" font-size="10">teorema de shannon capacidad</text>
<rect x="480" y="428" width="184" height="28" rx="4" ry="4" fill="#34d39922" stroke="#34d399" stroke-width="1.2"/>
<text x="486" y="439" fill="#34d399" font-size="9" opacity="0.7">02/09</text>
<text x="486" y="449" fill="#e2e8f0" font-size="10">teoria tasa distorsion</text>
<rect x="480" y="474" width="184" height="28" rx="4" ry="4" fill="#34d39922" stroke="#34d399" stroke-width="1.2"/>
<text x="486" y="485" fill="#34d399" font-size="9" opacity="0.7">02/10</text>
<text x="486" y="495" fill="#e2e8f0" font-size="10">entropia diferencial</text>
<rect x="480" y="520" width="184" height="28" rx="4" ry="4" fill="#34d39922" stroke="#34d399" stroke-width="1.2"/>
<text x="486" y="531" fill="#34d399" font-size="9" opacity="0.7">02/11</text>
<text x="486" y="541" fill="#e2e8f0" font-size="10">codigos ldpc y turbo</text>
<rect x="480" y="566" width="184" height="28" rx="4" ry="4" fill="#34d39922" stroke="#34d399" stroke-width="1.2"/>
<text x="486" y="577" fill="#34d399" font-size="9" opacity="0.7">02/12</text>
<text x="486" y="587" fill="#e2e8f0" font-size="10">cadenas de markov y tasa de …</text>
<rect x="480" y="612" width="184" height="28" rx="4" ry="4" fill="#34d39922" stroke="#34d399" stroke-width="1.2"/>
<text x="486" y="623" fill="#34d399" font-size="9" opacity="0.7">02/13</text>
<text x="486" y="633" fill="#e2e8f0" font-size="10">codificacion aritmetica</text>
<rect x="480" y="658" width="184" height="28" rx="4" ry="4" fill="#34d39922" stroke="#34d399" stroke-width="1.2"/>
<text x="486" y="669" fill="#34d399" font-size="9" opacity="0.7">02/14</text>
<text x="486" y="679" fill="#e2e8f0" font-size="10">procesos estocasticos y fuen…</text>
<rect x="480" y="704" width="184" height="28" rx="4" ry="4" fill="#34d39922" stroke="#34d399" stroke-width="1.2"/>
<text x="486" y="715" fill="#34d399" font-size="9" opacity="0.7">02/15</text>
<text x="486" y="725" fill="#e2e8f0" font-size="10">codigos reed solomon</text>
<rect x="480" y="750" width="184" height="28" rx="4" ry="4" fill="#34d39922" stroke="#34d399" stroke-width="1.2"/>
<text x="486" y="761" fill="#34d399" font-size="9" opacity="0.7">02/16</text>
<text x="486" y="771" fill="#e2e8f0" font-size="10">teoria informacion en redes</text>
<rect x="480" y="796" width="184" height="28" rx="4" ry="4" fill="#34d39922" stroke="#34d399" stroke-width="1.2"/>
<text x="486" y="807" fill="#34d399" font-size="9" opacity="0.7">02/17</text>
<text x="486" y="817" fill="#e2e8f0" font-size="10">codigos polares</text>
<rect x="480" y="842" width="184" height="28" rx="4" ry="4" fill="#34d39922" stroke="#34d399" stroke-width="1.2"/>
<text x="486" y="853" fill="#34d399" font-size="9" opacity="0.7">02/18</text>
<text x="486" y="863" fill="#e2e8f0" font-size="10">canal con estado gelfand pin…</text>
<rect x="480" y="888" width="184" height="28" rx="4" ry="4" fill="#34d39922" stroke="#34d399" stroke-width="1.2"/>
<text x="486" y="899" fill="#34d399" font-size="9" opacity="0.7">02/19</text>
<text x="486" y="909" fill="#e2e8f0" font-size="10">codigos turbo</text>
<rect x="710" y="60" width="184" height="28" rx="4" ry="4" fill="#f59e0b22" stroke="#f59e0b" stroke-width="1.2"/>
<text x="716" y="71" fill="#f59e0b" font-size="9" opacity="0.7">03/01</text>
<text x="716" y="81" fill="#e2e8f0" font-size="10">problema de la parada</text>
<rect x="710" y="106" width="184" height="28" rx="4" ry="4" fill="#f59e0b22" stroke="#f59e0b" stroke-width="1.2"/>
<text x="716" y="117" fill="#f59e0b" font-size="9" opacity="0.7">03/02</text>
<text x="716" y="127" fill="#e2e8f0" font-size="10">decidibilidad y reconocibili…</text>
<rect x="710" y="152" width="184" height="28" rx="4" ry="4" fill="#f59e0b22" stroke="#f59e0b" stroke-width="1.2"/>
<text x="716" y="163" fill="#f59e0b" font-size="9" opacity="0.7">03/03</text>
<text x="716" y="173" fill="#e2e8f0" font-size="10">reducciones e indecidibilida…</text>
<rect x="710" y="198" width="184" height="28" rx="4" ry="4" fill="#f59e0b22" stroke="#f59e0b" stroke-width="1.2"/>
<text x="716" y="209" fill="#f59e0b" font-size="9" opacity="0.7">03/04</text>
<text x="716" y="219" fill="#e2e8f0" font-size="10">maquinas de turing</text>
<rect x="710" y="244" width="184" height="28" rx="4" ry="4" fill="#f59e0b22" stroke="#f59e0b" stroke-width="1.2"/>
<text x="716" y="255" fill="#f59e0b" font-size="9" opacity="0.7">03/05</text>
<text x="716" y="265" fill="#e2e8f0" font-size="10">automatas finitos y lenguaje…</text>
<rect x="710" y="290" width="184" height="28" rx="4" ry="4" fill="#f59e0b22" stroke="#f59e0b" stroke-width="1.2"/>
<text x="716" y="301" fill="#f59e0b" font-size="9" opacity="0.7">03/06</text>
<text x="716" y="311" fill="#e2e8f0" font-size="10">gramaticas y jerarquia choms…</text>
<rect x="710" y="336" width="184" height="28" rx="4" ry="4" fill="#f59e0b22" stroke="#f59e0b" stroke-width="1.2"/>
<text x="716" y="347" fill="#f59e0b" font-size="9" opacity="0.7">03/07</text>
<text x="716" y="357" fill="#e2e8f0" font-size="10">universalidad y autorreferen…</text>
<rect x="710" y="382" width="184" height="28" rx="4" ry="4" fill="#f59e0b22" stroke="#f59e0b" stroke-width="1.2"/>
<text x="716" y="393" fill="#f59e0b" font-size="9" opacity="0.7">03/08</text>
<text x="716" y="403" fill="#e2e8f0" font-size="10">complejidad descriptiva</text>
<rect x="710" y="428" width="184" height="28" rx="4" ry="4" fill="#f59e0b22" stroke="#f59e0b" stroke-width="1.2"/>
<text x="716" y="439" fill="#f59e0b" font-size="9" opacity="0.7">03/09</text>
<text x="716" y="449" fill="#e2e8f0" font-size="10">automatas de pila y lenguaje…</text>
<rect x="710" y="474" width="184" height="28" rx="4" ry="4" fill="#f59e0b22" stroke="#f59e0b" stroke-width="1.2"/>
<text x="716" y="485" fill="#f59e0b" font-size="9" opacity="0.7">03/10</text>
<text x="716" y="495" fill="#e2e8f0" font-size="10">jerarquia aritmetica</text>
<rect x="710" y="520" width="184" height="28" rx="4" ry="4" fill="#f59e0b22" stroke="#f59e0b" stroke-width="1.2"/>
<text x="716" y="531" fill="#f59e0b" font-size="9" opacity="0.7">03/11</text>
<text x="716" y="541" fill="#e2e8f0" font-size="10">oráculos y relativización</text>
<rect x="710" y="566" width="184" height="28" rx="4" ry="4" fill="#f59e0b22" stroke="#f59e0b" stroke-width="1.2"/>
<text x="716" y="577" fill="#f59e0b" font-size="9" opacity="0.7">03/12</text>
<text x="716" y="587" fill="#e2e8f0" font-size="10">aleatoriedad algoritmica</text>
<rect x="940" y="60" width="184" height="28" rx="4" ry="4" fill="#f8717122" stroke="#f87171" stroke-width="1.2"/>
<text x="946" y="71" fill="#f87171" font-size="9" opacity="0.7">04/01</text>
<text x="946" y="81" fill="#e2e8f0" font-size="10">p np y np completitud</text>
<rect x="940" y="106" width="184" height="28" rx="4" ry="4" fill="#f8717122" stroke="#f87171" stroke-width="1.2"/>
<text x="946" y="117" fill="#f87171" font-size="9" opacity="0.7">04/02</text>
<text x="946" y="127" fill="#e2e8f0" font-size="10">reducciones polinomicas</text>
<rect x="940" y="152" width="184" height="28" rx="4" ry="4" fill="#f8717122" stroke="#f87171" stroke-width="1.2"/>
<text x="946" y="163" fill="#f87171" font-size="9" opacity="0.7">04/03</text>
<text x="946" y="173" fill="#e2e8f0" font-size="10">sat y 3 sat</text>
<rect x="940" y="198" width="184" height="28" rx="4" ry="4" fill="#f8717122" stroke="#f87171" stroke-width="1.2"/>
<text x="946" y="209" fill="#f87171" font-size="9" opacity="0.7">04/04</text>
<text x="946" y="219" fill="#e2e8f0" font-size="10">complejidad espacial</text>
<rect x="940" y="244" width="184" height="28" rx="4" ry="4" fill="#f8717122" stroke="#f87171" stroke-width="1.2"/>
<text x="946" y="255" fill="#f87171" font-size="9" opacity="0.7">04/05</text>
<text x="946" y="265" fill="#e2e8f0" font-size="10">complejidad temporal de algo…</text>
<rect x="940" y="290" width="184" height="28" rx="4" ry="4" fill="#f8717122" stroke="#f87171" stroke-width="1.2"/>
<text x="946" y="301" fill="#f87171" font-size="9" opacity="0.7">04/06</text>
<text x="946" y="311" fill="#e2e8f0" font-size="10">aproximacion y heuristicas</text>
<rect x="940" y="336" width="184" height="28" rx="4" ry="4" fill="#f8717122" stroke="#f87171" stroke-width="1.2"/>
<text x="946" y="347" fill="#f87171" font-size="9" opacity="0.7">04/07</text>
<text x="946" y="357" fill="#e2e8f0" font-size="10">circuitos booleanos</text>
<rect x="940" y="382" width="184" height="28" rx="4" ry="4" fill="#f8717122" stroke="#f87171" stroke-width="1.2"/>
<text x="946" y="393" fill="#f87171" font-size="9" opacity="0.7">04/08</text>
<text x="946" y="403" fill="#e2e8f0" font-size="10">complejidad aleatoria</text>
<rect x="940" y="428" width="184" height="28" rx="4" ry="4" fill="#f8717122" stroke="#f87171" stroke-width="1.2"/>
<text x="946" y="439" fill="#f87171" font-size="9" opacity="0.7">04/09</text>
<text x="946" y="449" fill="#e2e8f0" font-size="10">teorema pcp</text>
<rect x="940" y="474" width="184" height="28" rx="4" ry="4" fill="#f8717122" stroke="#f87171" stroke-width="1.2"/>
<text x="946" y="485" fill="#f87171" font-size="9" opacity="0.7">04/10</text>
<text x="946" y="495" fill="#e2e8f0" font-size="10">complejidad parametrizada</text>
<rect x="940" y="520" width="184" height="28" rx="4" ry="4" fill="#f8717122" stroke="#f87171" stroke-width="1.2"/>
<text x="946" y="531" fill="#f87171" font-size="9" opacity="0.7">04/11</text>
<text x="946" y="541" fill="#e2e8f0" font-size="10">sharp p y conteo</text>
<rect x="940" y="566" width="184" height="28" rx="4" ry="4" fill="#f8717122" stroke="#f87171" stroke-width="1.2"/>
<text x="946" y="577" fill="#f87171" font-size="9" opacity="0.7">04/12</text>
<text x="946" y="587" fill="#e2e8f0" font-size="10">complejidad de comunicacion</text>
<rect x="940" y="612" width="184" height="28" rx="4" ry="4" fill="#f8717122" stroke="#f87171" stroke-width="1.2"/>
<text x="946" y="623" fill="#f87171" font-size="9" opacity="0.7">04/13</text>
<text x="946" y="633" fill="#e2e8f0" font-size="10">eth seth consecuencias</text>
<rect x="940" y="658" width="184" height="28" rx="4" ry="4" fill="#f8717122" stroke="#f87171" stroke-width="1.2"/>
<text x="946" y="669" fill="#f87171" font-size="9" opacity="0.7">04/14</text>
<text x="946" y="679" fill="#e2e8f0" font-size="10">complejidad cuantica bqp qma</text>
<rect x="1170" y="60" width="184" height="28" rx="4" ry="4" fill="#a78bfa22" stroke="#a78bfa" stroke-width="1.2"/>
<text x="1176" y="71" fill="#a78bfa" font-size="9" opacity="0.7">05/01</text>
<text x="1176" y="81" fill="#e2e8f0" font-size="10">complejidad de kolmogorov</text>
<rect x="1170" y="106" width="184" height="28" rx="4" ry="4" fill="#a78bfa22" stroke="#a78bfa" stroke-width="1.2"/>
<text x="1176" y="117" fill="#a78bfa" font-size="9" opacity="0.7">05/02</text>
<text x="1176" y="127" fill="#e2e8f0" font-size="10">criptografia y complejidad</text>
<rect x="1170" y="152" width="184" height="28" rx="4" ry="4" fill="#a78bfa22" stroke="#a78bfa" stroke-width="1.2"/>
<text x="1176" y="163" fill="#a78bfa" font-size="9" opacity="0.7">05/03</text>
<text x="1176" y="173" fill="#e2e8f0" font-size="10">aprendizaje automatico e inf…</text>
<rect x="1170" y="198" width="184" height="28" rx="4" ry="4" fill="#a78bfa22" stroke="#a78bfa" stroke-width="1.2"/>
<text x="1176" y="209" fill="#a78bfa" font-size="9" opacity="0.7">05/04</text>
<text x="1176" y="219" fill="#e2e8f0" font-size="10">informacion cuantica</text>
<rect x="1170" y="244" width="184" height="28" rx="4" ry="4" fill="#a78bfa22" stroke="#a78bfa" stroke-width="1.2"/>
<text x="1176" y="255" fill="#a78bfa" font-size="9" opacity="0.7">05/05</text>
<text x="1176" y="265" fill="#e2e8f0" font-size="10">informacion en aprendizaje</text>
<rect x="1170" y="290" width="184" height="28" rx="4" ry="4" fill="#a78bfa22" stroke="#a78bfa" stroke-width="1.2"/>
<text x="1176" y="301" fill="#a78bfa" font-size="9" opacity="0.7">05/06</text>
<text x="1176" y="311" fill="#e2e8f0" font-size="10">informacion y termodinamica</text>
<rect x="1170" y="336" width="184" height="28" rx="4" ry="4" fill="#a78bfa22" stroke="#a78bfa" stroke-width="1.2"/>
<text x="1176" y="347" fill="#a78bfa" font-size="9" opacity="0.7">05/07</text>
<text x="1176" y="357" fill="#e2e8f0" font-size="10">informacion y biologia</text>
<rect x="1170" y="382" width="184" height="28" rx="4" ry="4" fill="#a78bfa22" stroke="#a78bfa" stroke-width="1.2"/>
<text x="1176" y="393" fill="#a78bfa" font-size="9" opacity="0.7">05/08</text>
<text x="1176" y="403" fill="#e2e8f0" font-size="10">mapa de conexiones</text>
<rect x="1170" y="428" width="184" height="28" rx="4" ry="4" fill="#a78bfa22" stroke="#a78bfa" stroke-width="1.2"/>
<text x="1176" y="439" fill="#a78bfa" font-size="9" opacity="0.7">05/09</text>
<text x="1176" y="449" fill="#e2e8f0" font-size="10">teoria de juegos e informaci…</text>
<rect x="1170" y="474" width="184" height="28" rx="4" ry="4" fill="#a78bfa22" stroke="#a78bfa" stroke-width="1.2"/>
<text x="1176" y="485" fill="#a78bfa" font-size="9" opacity="0.7">05/10</text>
<text x="1176" y="495" fill="#e2e8f0" font-size="10">aprendizaje profundo desde l…</text>
<rect x="1170" y="520" width="184" height="28" rx="4" ry="4" fill="#a78bfa22" stroke="#a78bfa" stroke-width="1.2"/>
<text x="1176" y="531" fill="#a78bfa" font-size="9" opacity="0.7">05/11</text>
<text x="1176" y="541" fill="#e2e8f0" font-size="10">privacidad diferencial</text>
<rect x="1170" y="566" width="184" height="28" rx="4" ry="4" fill="#a78bfa22" stroke="#a78bfa" stroke-width="1.2"/>
<text x="1176" y="577" fill="#a78bfa" font-size="9" opacity="0.7">05/12</text>
<text x="1176" y="587" fill="#e2e8f0" font-size="10">geometria de la informacion</text>
<rect x="1170" y="612" width="184" height="28" rx="4" ry="4" fill="#a78bfa22" stroke="#a78bfa" stroke-width="1.2"/>
<text x="1176" y="623" fill="#a78bfa" font-size="9" opacity="0.7">05/13</text>
<text x="1176" y="633" fill="#e2e8f0" font-size="10">mdl y seleccion de modelos</text>
<rect x="1170" y="658" width="184" height="28" rx="4" ry="4" fill="#a78bfa22" stroke="#a78bfa" stroke-width="1.2"/>
<text x="1176" y="669" fill="#a78bfa" font-size="9" opacity="0.7">05/14</text>
<text x="1176" y="679" fill="#e2e8f0" font-size="10">cuello de botella de la info…</text>
</svg>